<svg width="187" height="309" viewBox="0 0 187 309" fill="none" xmlns="http://www.w3.org/2000/svg">
<path d="M15.8538 276.056C6.67168 261.668 1.98196 246.279 1.64413 229.566C0.192579 157.755 1.22591 85.9373 1.10991 14.1229C1.08827 0.727403 1.33498 0.735184 14.9295 0.728867C29.9291 0.721909 44.9287 0.681626 59.9283 0.701279C61.8861 0.703842 63.9397 0.259233 66.298 1.77699C64.8728 8.68257 63.175 15.7552 61.9831 22.9121C59.0557 40.4887 53.7071 57.4936 49.9812 74.8787C47.7063 85.4935 47.054 96.3137 46.5074 107.068C44.7488 141.669 43.099 176.316 44.516 210.949C45.3223 230.656 53.1044 247.442 70.7839 258.232C75.4758 261.096 80.1314 264.042 84.9775 266.623C89.0302 268.782 90.5101 271.852 90.397 276.362C90.1716 285.356 90.2802 294.36 90.3496 303.359C90.3823 307.594 88.819 309.24 84.2783 308.824C75.9966 308.065 67.7793 307.253 59.5868 305.607C40.9324 301.857 26.4485 292.235 15.8538 276.056Z" fill="black"/>
<path d="M186.318 9.05852C186.27 76.7133 186.359 143.878 186.063 211.041C185.998 225.818 184.531 240.572 180.747 254.992C173.189 283.797 154.186 300.2 125.557 306.317C118.371 307.852 111.057 308.216 103.775 308.914C100.358 309.241 98.7801 307.821 98.8318 304.4C98.993 293.741 98.6885 283.074 99.6446 272.43C99.8699 269.923 101.254 268.514 103.151 267.345C107.547 264.635 111.842 261.725 116.4 259.318C132.3 250.921 140.074 236.951 143.575 220.068C145.062 212.896 145.514 205.573 145.64 198.253C146.023 175.923 145.825 153.586 144.509 131.3C142.249 93.0601 134.376 55.9447 121.056 19.9945C118.82 13.9604 117.07 7.74641 115.13 1.72301C117.482 0.257369 119.532 0.761977 121.476 0.756301C140.475 0.700819 159.475 0.709822 178.474 0.690871C186.288 0.683058 186.288 0.672439 186.318 9.05852Z" fill="black"/>
<path d="M112.329 52.8305C110.984 67.3016 107.044 80.3033 97.9573 91.4037C95.8989 93.9184 94.217 95.0167 91.7544 91.8365C76.2507 71.8153 71.0222 40.0721 88.6281 16.6565C94.4792 8.87452 95.1565 8.63279 100.754 16.55C108.32 27.2515 113.032 38.9504 112.329 52.8305Z" fill="black"/>
<path d="M80.7845 198.536C74.607 196.135 69.4754 192.696 64.6946 188.819C53.2401 179.531 52.8485 166.497 53.1195 153.316C53.1364 152.496 53.4543 151.687 53.5533 150.863C54.5578 142.497 57.5263 140.417 65.5092 143.584C83.2743 150.63 91.1463 159.695 90.379 178.23C90.1864 182.883 90.3362 187.551 90.2963 192.211C90.2204 201.062 89.4385 201.608 80.7845 198.536Z" fill="black"/>
<path d="M136.093 145.073C140.985 174.193 132.137 189.808 105.023 199.498C101.067 200.912 99.5247 199.758 99.6092 195.537C99.7725 187.389 99.4853 179.231 99.7232 171.087C99.9536 163.2 103.018 156.436 109.602 151.851C116.119 147.313 122.622 142.467 131.21 142.641C133.082 142.679 134.917 142.675 136.093 145.073Z" fill="black"/>
<path d="M88.1031 142.672C85.9603 145.121 84.2188 143.355 82.6422 142.479C77.8514 139.817 73.1941 136.917 68.4565 134.158C65.7279 132.568 64.1086 130.076 62.8398 127.341C57.2053 115.195 54.5705 102.524 56.7756 89.1589C58.0489 81.4408 61.6382 79.7447 68.2086 84.1317C84.1482 94.7743 92.4051 109.385 89.8924 128.977C89.3239 133.41 89.7572 137.973 88.1031 142.672Z" fill="black"/>
<path d="M130.397 117.109C128.24 132.456 116.331 137.897 104.882 143.73C102.584 144.901 101.027 144.015 100.729 141.335C99.7067 132.111 98.003 122.779 99.8469 113.614C102.508 100.389 110.314 90.4182 122.046 83.8287C127.015 81.0381 129.942 82.5673 131.184 88.0943C133.334 97.6573 132.721 107.213 130.397 117.109Z" fill="black"/>
<path d="M87.4349 217.798C89.9701 222.128 90.6126 226.458 90.5233 231.071C90.3535 239.849 90.4741 248.633 90.4741 256.739C88.6393 258.093 87.6724 257.811 86.7565 257.381C69.4769 249.26 57.6866 236.624 53.7547 217.443C52.8111 212.84 52.4826 208.225 52.6859 203.557C52.8784 199.138 54.5652 197.612 58.7163 199.097C69.6111 202.997 80.0087 207.832 87.4349 217.798Z" fill="black"/>
<path d="M125.933 239.83C119.042 248.307 110.355 253.437 100.677 257.435C99.1323 254.158 99.0822 251.305 99.1151 248.52C99.2055 240.877 99.3431 233.229 99.7393 225.597C100.084 218.955 103.957 214.043 108.901 210.2C114.817 205.601 121.391 201.941 128.438 199.296C134.48 197.028 136.403 198.356 136.318 204.662C136.148 217.21 133.196 228.98 125.933 239.83Z" fill="black"/>
</svg>
