<svg width="749" height="313" viewBox="0 0 749 313" fill="none" xmlns="http://www.w3.org/2000/svg">
<path d="M533.673 170.757C531.807 171.91 530.273 172.92 528.66 173.783C522.242 177.218 522.156 177.226 524.47 184.346C536.862 222.476 550.369 260.219 563.948 297.937C567.282 307.197 567.327 307.191 557.719 307.183C543.221 307.17 528.723 307.018 514.228 307.201C510.152 307.252 508.415 305.761 507.305 301.884C496.868 265.438 486.164 229.067 475.768 192.609C474.445 187.969 472.482 185.785 467.491 186.299C463.699 186.69 459.835 186.37 456.002 186.377C453.564 186.381 452.294 187.544 452.353 190.056C452.385 191.388 452.337 192.722 452.337 194.055C452.333 229.715 452.228 265.375 452.442 301.034C452.473 306.175 450.928 307.544 445.93 307.427C432.107 307.103 418.269 307.178 404.442 307.385C400.273 307.448 398.549 306.485 398.554 301.888C398.663 204.573 398.653 107.257 398.554 9.94243C398.55 5.71151 400.053 4.59182 404.075 4.61413C432.902 4.77404 461.734 4.46206 490.556 4.8789C507.059 5.11754 523.061 7.78521 536.077 19.5251C548.353 30.5984 554.135 44.7816 556.31 60.7309C559.27 82.4425 559.086 104.268 557.145 125.994C555.559 143.752 549.534 159.779 533.673 170.757ZM452.78 138.443C454.098 140.687 456.319 140.673 458.497 140.68C463.993 140.699 469.492 140.775 474.986 140.652C488.646 140.345 498.021 133.246 501.584 120.005C505.571 105.188 505.856 90.0966 503.206 75.0437C501.07 62.9108 495.446 53.1836 482.124 50.865C473.418 49.3498 464.525 50.033 455.709 50.1808C452.769 50.2301 452.342 52.312 452.347 54.7006C452.41 82.3476 452.456 109.995 452.78 138.443Z" fill="black"/>
<path d="M652.637 311.61C616.273 308.988 589.833 284.316 584.562 248.615C581.969 231.056 582.858 213.401 582.787 195.78C582.638 158.468 582.651 121.156 582.812 83.8441C582.874 69.2968 584.89 55.0381 590.854 41.5375C598.488 24.2592 611.23 12.4154 629.002 6.40166C650.134 -0.749127 671.793 -1.52995 693.416 3.77489C720.98 10.5371 737.275 28.6879 744.369 55.7907C747.524 67.8431 747.797 80.1557 747.878 92.4196C748.165 136.226 748.15 180.036 748.098 223.844C748.084 235.662 747.442 247.516 743.964 258.906C735.054 288.081 714.719 304.456 685.32 310.31C674.667 312.432 663.916 313.284 652.637 311.61ZM637.361 81.6074C637.361 132.593 637.376 183.578 637.33 234.563C637.327 238.437 637.892 242.226 638.822 245.907C642.243 259.439 650.967 265.153 667.082 264.719C680.832 264.348 688.718 257.839 691.847 244.58C692.548 241.61 692.77 238.664 692.769 235.677C692.761 182.359 692.828 129.042 692.638 75.7247C692.578 59.0658 684.879 49.9007 670.101 47.6384C653.617 45.115 641.819 52.3625 638.712 67.2685C637.803 71.6276 636.979 76.102 637.361 81.6074Z" fill="black"/>
<path d="M364.896 307.345C356.739 307.343 349.072 307.253 341.409 307.386C338.105 307.444 336.655 306.421 336.563 302.846C336.44 298.099 335.632 293.369 335.117 288.617C332.635 288.825 331.879 290.516 330.898 291.736C319.56 305.821 304.613 312.105 286.814 312.483C274.181 312.75 261.734 311.492 250.305 305.899C230.407 296.161 219.211 279.361 213.781 258.399C210.892 247.246 209.896 235.76 209.849 224.302C209.662 178.641 209.563 132.978 209.931 87.3194C210.03 74.9157 210.811 62.4236 214.493 50.3239C222.27 24.7643 239.046 8.74391 265.089 3.11216C282.988 -0.758595 301.131 -0.730458 319.088 3.22657C347.581 9.50529 362.385 28.6989 368.283 56.0828C371.367 70.3973 370.154 84.9212 370.343 99.3776C370.379 102.096 369.288 103.266 366.494 103.256C351.996 103.206 337.497 103.207 323 103.315C319.718 103.339 318.636 101.966 318.676 98.8153C318.783 90.4847 318.916 82.1419 318.584 73.8222C318.317 67.1292 317.272 60.3214 312.528 55.1934C304.348 46.3513 293.7 46.1604 282.869 48.086C272.709 49.8922 267.647 56.9172 265.57 66.4791C264.759 70.2113 264.271 73.978 264.275 77.8504C264.331 130.511 264.32 183.171 264.261 235.832C264.256 239.874 264.807 243.831 265.823 247.659C268.499 257.749 276.301 263.949 286.8 264.658C290.956 264.938 295.155 265.134 299.241 264.212C310.965 261.568 318.097 252.989 318.523 239.588C319.021 223.939 318.627 208.263 318.722 192.599C318.742 189.337 317.323 188.143 314.202 188.201C308.705 188.303 303.197 188.073 297.707 188.299C293.745 188.462 292.522 186.879 292.583 183.013C292.774 170.684 292.771 158.349 292.601 146.019C292.547 142.137 293.841 140.798 297.783 140.807C320.611 140.858 343.441 140.769 366.269 140.525C370.875 140.475 370.334 143.325 370.335 146.155C370.345 177.652 370.352 209.148 370.353 240.644C370.353 261.142 370.278 281.64 370.397 302.137C370.419 305.862 369.51 307.96 364.896 307.345Z" fill="black"/>
<path d="M15.8538 280.056C6.67168 265.668 1.98196 250.279 1.64413 233.566C0.192579 161.755 1.22591 89.9373 1.10991 18.1229C1.08827 4.7274 1.33498 4.73518 14.9295 4.72887C29.9291 4.72191 44.9287 4.68163 59.9283 4.70128C61.8861 4.70384 63.9397 4.25923 66.298 5.77699C64.8728 12.6826 63.175 19.7552 61.9831 26.9121C59.0557 44.4887 53.7071 61.4936 49.9812 78.8787C47.7063 89.4935 47.054 100.314 46.5074 111.068C44.7488 145.669 43.099 180.316 44.516 214.949C45.3223 234.656 53.1044 251.442 70.7839 262.232C75.4758 265.096 80.1314 268.042 84.9775 270.623C89.0302 272.782 90.5101 275.852 90.397 280.362C90.1716 289.356 90.2802 298.36 90.3496 307.359C90.3823 311.594 88.819 313.24 84.2783 312.824C75.9966 312.065 67.7793 311.253 59.5868 309.607C40.9324 305.857 26.4485 296.235 15.8538 280.056Z" fill="black"/>
<path d="M186.318 13.0585C186.27 80.7133 186.359 147.878 186.063 215.041C185.998 229.818 184.531 244.572 180.747 258.992C173.189 287.797 154.186 304.2 125.557 310.317C118.371 311.852 111.057 312.216 103.775 312.914C100.358 313.241 98.7801 311.821 98.8318 308.4C98.993 297.741 98.6885 287.074 99.6446 276.43C99.8699 273.923 101.254 272.514 103.151 271.345C107.547 268.635 111.842 265.725 116.4 263.318C132.3 254.921 140.074 240.951 143.575 224.068C145.062 216.896 145.514 209.573 145.64 202.253C146.023 179.923 145.825 157.586 144.509 135.3C142.249 97.0601 134.376 59.9447 121.056 23.9945C118.82 17.9604 117.07 11.7464 115.13 5.72301C117.482 4.25737 119.532 4.76198 121.476 4.7563C140.475 4.70082 159.475 4.70982 178.474 4.69087C186.288 4.68306 186.288 4.67244 186.318 13.0585Z" fill="black"/>
<path d="M112.329 56.8305C110.984 71.3016 107.044 84.3033 97.9573 95.4037C95.8989 97.9184 94.217 99.0167 91.7544 95.8365C76.2507 75.8153 71.0222 44.0721 88.6281 20.6565C94.4792 12.8745 95.1565 12.6328 100.754 20.55C108.32 31.2514 113.032 42.9504 112.329 56.8305Z" fill="black"/>
<path d="M80.7845 202.536C74.607 200.135 69.4754 196.696 64.6946 192.819C53.2401 183.531 52.8485 170.497 53.1195 157.316C53.1364 156.496 53.4543 155.687 53.5533 154.863C54.5578 146.497 57.5263 144.417 65.5092 147.584C83.2743 154.63 91.1463 163.695 90.379 182.23C90.1864 186.883 90.3362 191.551 90.2963 196.211C90.2204 205.062 89.4385 205.608 80.7845 202.536Z" fill="black"/>
<path d="M136.093 149.073C140.985 178.193 132.137 193.808 105.023 203.498C101.067 204.912 99.5247 203.758 99.6092 199.537C99.7725 191.389 99.4853 183.231 99.7232 175.087C99.9536 167.2 103.018 160.436 109.602 155.851C116.119 151.313 122.622 146.467 131.21 146.641C133.082 146.679 134.917 146.675 136.093 149.073Z" fill="black"/>
<path d="M88.1031 146.672C85.9603 149.121 84.2188 147.355 82.6422 146.479C77.8514 143.817 73.1941 140.917 68.4565 138.158C65.7279 136.568 64.1086 134.076 62.8398 131.341C57.2053 119.195 54.5705 106.524 56.7756 93.1589C58.0489 85.4408 61.6382 83.7447 68.2086 88.1317C84.1482 98.7743 92.4051 113.385 89.8924 132.977C89.3239 137.41 89.7572 141.973 88.1031 146.672Z" fill="black"/>
<path d="M130.397 121.109C128.24 136.456 116.331 141.897 104.882 147.73C102.584 148.901 101.027 148.015 100.729 145.335C99.7067 136.111 98.003 126.779 99.8469 117.614C102.508 104.389 110.314 94.4182 122.046 87.8287C127.015 85.0381 129.942 86.5673 131.184 92.0943C133.334 101.657 132.721 111.213 130.397 121.109Z" fill="black"/>
<path d="M87.4349 221.798C89.9701 226.128 90.6126 230.458 90.5233 235.071C90.3535 243.849 90.4741 252.633 90.4741 260.739C88.6393 262.093 87.6724 261.811 86.7565 261.381C69.4769 253.26 57.6866 240.624 53.7547 221.443C52.8111 216.84 52.4826 212.225 52.6859 207.557C52.8784 203.138 54.5652 201.612 58.7163 203.097C69.6111 206.997 80.0087 211.832 87.4349 221.798Z" fill="black"/>
<path d="M125.933 243.83C119.042 252.307 110.355 257.437 100.677 261.435C99.1323 258.158 99.0822 255.305 99.1151 252.52C99.2055 244.877 99.3431 237.229 99.7393 229.597C100.084 222.955 103.957 218.043 108.901 214.2C114.817 209.601 121.391 205.941 128.438 203.296C134.48 201.028 136.403 202.356 136.318 208.662C136.148 221.21 133.196 232.98 125.933 243.83Z" fill="black"/>
</svg>
